<?xml version="1.0" standalone="no"?><!DOCTYPE svg PUBLIC "-//W3C//DTD SVG 1.1//EN" "http://www.w3.org/Graphics/SVG/1.1/DTD/svg11.dtd"><svg width="100%" height="100%" viewBox="0 0 135 152" version="1.1" xmlns="http://www.w3.org/2000/svg" xmlns:xlink="http://www.w3.org/1999/xlink" xml:space="preserve" style="fill-rule:evenodd;clip-rule:evenodd;stroke-linejoin:round;stroke-miterlimit:1.41421;"><path id="chrono-foreground" d="M56.876,39.704l0.283,0.003l0.282,0.004l0.282,0.007l0.281,0.008l0.282,0.009l0.28,0.012l0.28,0.013l0.28,0.015l0.28,0.017l0.278,0.019l0.279,0.02l0.278,0.022l0.277,0.024l0.277,0.026l0.277,0.027l0.276,0.029l0.275,0.03l0.275,0.033l0.275,0.034l0.274,0.036l0.273,0.037l0.273,0.039l0.273,0.041l0.272,0.042l0.271,0.045l0.271,0.045l0.27,0.048l0.27,0.049l0.269,0.051l0.268,0.052l0.268,0.054l0.268,0.056l0.267,0.057l0.266,0.059l0.265,0.06l0.265,0.062l0.265,0.064l0.264,0.066l0.263,0.066l0.262,0.069l0.262,0.07l0.261,0.072l0.261,0.073l0.26,0.075l0.259,0.076l0.259,0.078l0.258,0.079l0.257,0.081l0.256,0.083l0.256,0.084l0.255,0.085l0.255,0.087l0.254,0.089l0.253,0.09l0.252,0.091l0.252,0.094l0.251,0.094l0.25,0.096l0.249,0.098l0.249,0.099l0.248,0.1l0.247,0.102l0.246,0.104l0.246,0.104l0.245,0.107l0.244,0.108l0.243,0.109l0.243,0.11l0.242,0.112l0.241,0.114l0.24,0.115l0.239,0.116l0.239,0.118l0.237,0.119l0.237,0.12l0.236,0.122l0.235,0.123l0.235,0.125l0.233,0.126l0.233,0.127l0.232,0.129l0.23,0.13l0.23,0.132l0.23,0.132l0.228,0.135l0.227,0.135l0.227,0.137l0.225,0.138l0.225,0.139l0.224,0.141l0.223,0.142l0.222,0.143l0.221,0.145l0.22,0.146l0.219,0.147l0.219,0.148l0.217,0.15l0.216,0.151l0.215,0.152l0.215,0.154l0.214,0.155l0.212,0.156l0.212,0.157l0.21,0.158l0.21,0.16l0.208,0.161l0.208,0.162l0.206,0.164l0.206,0.164l0.204,0.166l0.204,0.167l0.203,0.168l0.201,0.169l0.201,0.171l0.199,0.172l0.198,0.173l0.198,0.174l0.196,0.175l0.195,0.176l0.194,0.178l0.193,0.178l0.192,0.18l0.191,0.181l0.19,0.182l0.189,0.184l0.187,0.184l0.187,0.185l0.185,0.187l0.184,0.187l0.184,0.189l0.182,0.19l0.181,0.191l0.179,0.192l0.179,0.192l0.178,0.195l0.176,0.195l0.176,0.197l0.174,0.197l0.172,0.198l0.172,0.199l0.171,0.201l0.169,0.202l0.168,0.202l0.167,0.203l0.166,0.205l0.164,0.205l0.164,0.207l0.162,0.208l0.161,0.209l0.159,0.209l0.159,0.211l0.157,0.211l0.156,0.213l0.155,0.213l0.154,0.214l0.152,0.216l0.151,0.216l0.15,0.218l0.148,0.218l0.147,0.219l0.146,0.22l0.145,0.221l0.143,0.222l0.142,0.223l0.141,0.224l0.14,0.225l0.137,0.225l0.137,0.227l0.135,0.227l0.135,0.228l0.133,0.23l0.131,0.229l0.13,0.231l0.129,0.232l0.127,0.233l0.126,0.234l0.125,0.234l0.123,0.235l0.122,0.236l0.12,0.236l0.119,0.239l0.118,0.238l0.116,0.239l0.115,0.24l0.114,0.241l0.112,0.242l0.11,0.243l0.109,0.243l0.108,0.244l0.107,0.245l0.105,0.246l0.103,0.246l0.102,0.247l0.1,0.248l0.099,0.249l0.098,0.249l0.096,0.25l0.095,0.252l0.093,0.251l0.091,0.252l0.09,0.253l0.089,0.254l0.087,0.254l0.085,0.255l0.085,0.257l0.082,0.257l0.081,0.256l0.079,0.258l0.078,0.259l0.076,0.259l0.075,0.26l0.074,0.261l0.071,0.261l0.07,0.262l0.069,0.262l0.067,0.263l0.065,0.264l0.063,0.264l0.063,0.266l0.06,0.265l0.059,0.266l0.057,0.268l0.056,0.266l0.054,0.269l0.052,0.268l0.051,0.269l0.049,0.27l0.048,0.27l0.045,0.271l0.045,0.271l0.042,0.272l0.041,0.273l0.039,0.273l0.037,0.273l0.036,0.274l0.034,0.274l0.033,0.276l0.03,0.275l0.029,0.276l0.027,0.277l0.026,0.277l0.024,0.278l0.022,0.277l0.02,0.279l0.019,0.279l0.017,0.279l0.015,0.279l0.013,0.281l0.012,0.281l0.009,0.28l0.008,0.282l0.007,0.282l0.004,0.282l0.003,0.283l0.001,0.283l-0.001,0.283l-0.003,0.283l-0.004,0.282l-0.007,0.282l-0.008,0.282l-0.009,0.28l-0.012,0.281l-0.013,0.281l-0.015,0.279l-0.017,0.279l-0.019,0.279l-0.02,0.279l-0.022,0.277l-0.024,0.278l-0.026,0.277l-0.027,0.277l-0.029,0.276l-0.03,0.275l-0.033,0.276l-0.034,0.274l-0.036,0.274l-0.037,0.273l-0.039,0.273l-0.041,0.273l-0.042,0.272l-0.045,0.271l-0.045,0.271l-0.048,0.27l-0.049,0.27l-0.051,0.269l-0.052,0.268l-0.054,0.269l-0.056,0.266l-0.057,0.267l-0.059,0.267l-0.06,0.265l-0.063,0.266l-0.063,0.264l-0.065,0.263l-0.067,0.264l-0.069,0.262l-0.07,0.262l-0.071,0.261l-0.074,0.261l-0.075,0.26l-0.076,0.259l-0.078,0.259l-0.079,0.258l-0.081,0.256l-0.082,0.257l-0.085,0.257l-0.085,0.255l-0.087,0.254l-0.089,0.254l-0.09,0.253l-0.091,0.252l-0.093,0.251l-0.095,0.252l-0.096,0.25l-0.098,0.249l-0.099,0.249l-0.1,0.248l-0.102,0.247l-0.103,0.246l-0.105,0.246l-0.107,0.245l-0.108,0.244l-0.109,0.243l-0.11,0.243l-0.112,0.242l-0.114,0.241l-0.115,0.24l-0.116,0.239l-0.118,0.238l-0.119,0.238l-0.12,0.237l-0.122,0.236l-0.123,0.235l-0.125,0.234l-0.126,0.234l-0.127,0.233l-0.129,0.232l-0.13,0.231l-0.131,0.229l-0.133,0.23l-0.135,0.228l-0.135,0.227l-0.137,0.227l-0.137,0.225l-0.14,0.225l-0.141,0.224l-0.142,0.223l-0.143,0.222l-0.145,0.221l-0.146,0.22l-0.147,0.219l-0.148,0.218l-0.15,0.218l-0.151,0.216l-0.152,0.216l-0.154,0.214l-0.155,0.213l-0.156,0.213l-0.157,0.211l-0.159,0.211l-0.159,0.209l-0.161,0.209l-0.162,0.208l-0.164,0.207l-0.164,0.205l-0.166,0.205l-0.167,0.203l-0.168,0.202l-0.169,0.202l-0.171,0.201l-0.172,0.199l-0.172,0.198l-0.174,0.197l-0.176,0.197l-0.176,0.195l-0.178,0.195l-0.179,0.192l-0.179,0.192l-0.181,0.191l-0.182,0.19l-0.184,0.189l-0.184,0.187l-0.185,0.187l-0.187,0.185l-0.187,0.184l-0.189,0.184l-0.19,0.182l-0.191,0.181l-0.192,0.18l-0.193,0.178l-0.194,0.178l-0.195,0.176l-0.197,0.175l-0.197,0.174l-0.198,0.173l-0.199,0.172l-0.201,0.171l-0.202,0.169l-0.202,0.168l-0.204,0.167l-0.204,0.166l-0.206,0.164l-0.206,0.164l-0.208,0.162l-0.208,0.161l-0.21,0.16l-0.21,0.158l-0.212,0.157l-0.213,0.156l-0.213,0.155l-0.214,0.154l-0.216,0.152l-0.216,0.151l-0.217,0.15l-0.219,0.148l-0.219,0.147l-0.22,0.146l-0.221,0.145l-0.222,0.143l-0.223,0.142l-0.224,0.141l-0.225,0.139l-0.225,0.138l-0.226,0.137l-0.228,0.135l-0.228,0.135l-0.23,0.132l-0.23,0.132l-0.23,0.13l-0.232,0.129l-0.233,0.127l-0.233,0.126l-0.235,0.125l-0.235,0.123l-0.236,0.122l-0.237,0.12l-0.237,0.119l-0.239,0.118l-0.239,0.116l-0.241,0.115l-0.24,0.114l-0.242,0.112l-0.243,0.11l-0.243,0.109l-0.244,0.108l-0.245,0.106l-0.246,0.105l-0.246,0.104l-0.247,0.102l-0.248,0.1l-0.249,0.099l-0.249,0.098l-0.25,0.096l-0.251,0.094l-0.252,0.093l-0.252,0.092l-0.253,0.09l-0.254,0.089l-0.255,0.087l-0.255,0.085l-0.256,0.084l-0.256,0.083l-0.257,0.081l-0.258,0.079l-0.259,0.078l-0.259,0.076l-0.26,0.075l-0.261,0.073l-0.261,0.072l-0.262,0.07l-0.262,0.069l-0.263,0.066l-0.264,0.066l-0.265,0.064l-0.265,0.062l-0.265,0.06l-0.266,0.059l-0.267,0.057l-0.268,0.056l-0.268,0.054l-0.268,0.052l-0.269,0.051l-0.27,0.049l-0.27,0.048l-0.271,0.045l-0.271,0.045l-0.272,0.042l-0.273,0.041l-0.273,0.039l-0.273,0.037l-0.274,0.036l-0.275,0.034l-0.275,0.033l-0.275,0.03l-0.276,0.029l-0.277,0.027l-0.277,0.026l-0.277,0.024l-0.278,0.022l-0.279,0.02l-0.278,0.019l-0.28,0.017l-0.28,0.015l-0.28,0.013l-0.28,0.012l-0.282,0.009l-0.281,0.008l-0.282,0.007l-0.282,0.004l-0.283,0.003l-0.283,0.001l-0.283,-0.001l-0.283,-0.003l-0.282,-0.004l-0.282,-0.007l-0.281,-0.008l-0.282,-0.009l-0.28,-0.012l-0.28,-0.013l-0.28,-0.015l-0.279,-0.017l-0.279,-0.019l-0.279,-0.02l-0.278,-0.022l-0.277,-0.024l-0.277,-0.026l-0.277,-0.027l-0.276,-0.029l-0.275,-0.03l-0.275,-0.033l-0.275,-0.034l-0.274,-0.036l-0.273,-0.037l-0.273,-0.039l-0.273,-0.041l-0.272,-0.042l-0.271,-0.045l-0.271,-0.045l-0.27,-0.048l-0.27,-0.049l-0.269,-0.051l-0.268,-0.052l-0.268,-0.054l-0.268,-0.056l-0.267,-0.057l-0.266,-0.059l-0.265,-0.06l-0.265,-0.063l-0.265,-0.063l-0.263,-0.065l-0.264,-0.067l-0.262,-0.069l-0.262,-0.07l-0.261,-0.072l-0.261,-0.073l-0.26,-0.075l-0.259,-0.076l-0.259,-0.078l-0.258,-0.079l-0.257,-0.081l-0.256,-0.083l-0.256,-0.084l-0.255,-0.085l-0.255,-0.087l-0.254,-0.089l-0.253,-0.09l-0.252,-0.092l-0.252,-0.093l-0.251,-0.094l-0.25,-0.096l-0.249,-0.098l-0.249,-0.099l-0.248,-0.1l-0.247,-0.102l-0.246,-0.104l-0.246,-0.105l-0.245,-0.106l-0.244,-0.108l-0.243,-0.109l-0.243,-0.11l-0.242,-0.112l-0.24,-0.114l-0.241,-0.115l-0.239,-0.116l-0.238,-0.118l-0.238,-0.119l-0.237,-0.12l-0.236,-0.122l-0.235,-0.123l-0.235,-0.125l-0.233,-0.126l-0.233,-0.127l-0.232,-0.129l-0.23,-0.13l-0.23,-0.132l-0.23,-0.132l-0.228,-0.135l-0.227,-0.135l-0.227,-0.137l-0.225,-0.138l-0.225,-0.139l-0.224,-0.141l-0.223,-0.142l-0.222,-0.143l-0.221,-0.145l-0.22,-0.146l-0.219,-0.147l-0.218,-0.148l-0.218,-0.15l-0.216,-0.151l-0.216,-0.152l-0.214,-0.154l-0.213,-0.155l-0.213,-0.156l-0.212,-0.157l-0.21,-0.158l-0.21,-0.16l-0.208,-0.161l-0.208,-0.162l-0.206,-0.163l-0.206,-0.165l-0.205,-0.166l-0.203,-0.167l-0.202,-0.168l-0.202,-0.169l-0.201,-0.171l-0.199,-0.172l-0.198,-0.173l-0.197,-0.174l-0.197,-0.175l-0.195,-0.176l-0.194,-0.178l-0.193,-0.179l-0.192,-0.179l-0.191,-0.181l-0.19,-0.182l-0.189,-0.183l-0.187,-0.185l-0.187,-0.185l-0.185,-0.187l-0.184,-0.187l-0.184,-0.189l-0.182,-0.19l-0.181,-0.191l-0.179,-0.192l-0.179,-0.193l-0.178,-0.194l-0.176,-0.195l-0.175,-0.196l-0.174,-0.198l-0.173,-0.198l-0.172,-0.199l-0.171,-0.201l-0.169,-0.202l-0.168,-0.202l-0.167,-0.203l-0.166,-0.205l-0.164,-0.205l-0.164,-0.207l-0.162,-0.208l-0.161,-0.209l-0.16,-0.209l-0.158,-0.21l-0.157,-0.212l-0.156,-0.213l-0.155,-0.213l-0.154,-0.214l-0.152,-0.216l-0.151,-0.216l-0.15,-0.218l-0.148,-0.218l-0.147,-0.219l-0.146,-0.22l-0.145,-0.221l-0.143,-0.222l-0.142,-0.223l-0.141,-0.224l-0.139,-0.224l-0.138,-0.226l-0.137,-0.227l-0.136,-0.227l-0.134,-0.228l-0.132,-0.229l-0.132,-0.231l-0.13,-0.23l-0.129,-0.232l-0.127,-0.233l-0.126,-0.233l-0.125,-0.235l-0.123,-0.235l-0.122,-0.236l-0.12,-0.237l-0.119,-0.238l-0.118,-0.238l-0.116,-0.239l-0.115,-0.24l-0.113,-0.241l-0.113,-0.242l-0.11,-0.243l-0.109,-0.243l-0.108,-0.244l-0.107,-0.245l-0.104,-0.246l-0.104,-0.246l-0.102,-0.247l-0.1,-0.248l-0.099,-0.249l-0.098,-0.249l-0.096,-0.251l-0.094,-0.25l-0.093,-0.252l-0.092,-0.252l-0.09,-0.253l-0.089,-0.254l-0.087,-0.255l-0.085,-0.254l-0.084,-0.256l-0.083,-0.257l-0.081,-0.257l-0.079,-0.258l-0.078,-0.259l-0.076,-0.259l-0.075,-0.26l-0.073,-0.261l-0.072,-0.261l-0.07,-0.262l-0.068,-0.262l-0.067,-0.264l-0.066,-0.263l-0.063,-0.265l-0.063,-0.264l-0.06,-0.266l-0.059,-0.267l-0.057,-0.266l-0.056,-0.268l-0.054,-0.267l-0.052,-0.269l-0.051,-0.269l-0.049,-0.27l-0.048,-0.27l-0.045,-0.271l-0.045,-0.271l-0.042,-0.272l-0.041,-0.273l-0.039,-0.273l-0.037,-0.273l-0.036,-0.274l-0.034,-0.275l-0.033,-0.275l-0.03,-0.275l-0.029,-0.276l-0.027,-0.277l-0.026,-0.277l-0.024,-0.277l-0.022,-0.278l-0.02,-0.279l-0.019,-0.279l-0.017,-0.279l-0.015,-0.28l-0.013,-0.28l-0.012,-0.281l-0.009,-0.28l-0.008,-0.282l-0.007,-0.282l-0.004,-0.282l-0.003,-0.283l-0.001,-0.283l0.001,-0.283l0.003,-0.283l0.004,-0.282l0.007,-0.282l0.008,-0.282l0.009,-0.28l0.012,-0.281l0.013,-0.28l0.015,-0.28l0.017,-0.279l0.019,-0.279l0.02,-0.279l0.022,-0.278l0.024,-0.277l0.026,-0.277l0.027,-0.277l0.029,-0.276l0.03,-0.275l0.033,-0.275l0.034,-0.275l0.036,-0.274l0.037,-0.273l0.039,-0.273l0.041,-0.273l0.042,-0.272l0.045,-0.271l0.045,-0.271l0.048,-0.27l0.049,-0.27l0.051,-0.269l0.052,-0.269l0.054,-0.267l0.056,-0.268l0.057,-0.267l0.059,-0.266l0.06,-0.266l0.063,-0.264l0.063,-0.265l0.066,-0.264l0.067,-0.263l0.068,-0.262l0.07,-0.262l0.072,-0.261l0.073,-0.261l0.075,-0.26l0.076,-0.259l0.078,-0.259l0.079,-0.258l0.081,-0.257l0.083,-0.257l0.084,-0.256l0.085,-0.254l0.087,-0.255l0.089,-0.254l0.09,-0.253l0.092,-0.252l0.093,-0.252l0.094,-0.25l0.096,-0.251l0.098,-0.249l0.099,-0.249l0.1,-0.248l0.102,-0.247l0.104,-0.246l0.104,-0.246l0.107,-0.245l0.108,-0.244l0.109,-0.243l0.11,-0.243l0.113,-0.242l0.113,-0.241l0.115,-0.24l0.116,-0.239l0.118,-0.238l0.119,-0.238l0.12,-0.237l0.122,-0.236l0.123,-0.235l0.125,-0.235l0.126,-0.233l0.127,-0.233l0.129,-0.232l0.13,-0.23l0.132,-0.231l0.132,-0.229l0.134,-0.228l0.136,-0.227l0.137,-0.227l0.138,-0.226l0.139,-0.224l0.141,-0.224l0.142,-0.223l0.143,-0.222l0.145,-0.221l0.146,-0.22l0.147,-0.219l0.148,-0.218l0.15,-0.218l0.151,-0.216l0.152,-0.216l0.154,-0.214l0.155,-0.213l0.156,-0.213l0.157,-0.212l0.158,-0.21l0.16,-0.209l0.161,-0.209l0.162,-0.208l0.164,-0.207l0.164,-0.205l0.166,-0.205l0.167,-0.203l0.168,-0.202l0.169,-0.202l0.171,-0.201l0.172,-0.199l0.173,-0.198l0.174,-0.198l0.175,-0.196l0.176,-0.195l0.178,-0.194l0.179,-0.193l0.179,-0.192l0.181,-0.191l0.182,-0.19l0.184,-0.189l0.184,-0.187l0.185,-0.187l0.187,-0.185l0.187,-0.185l0.189,-0.183l0.19,-0.182l0.191,-0.181l0.192,-0.18l0.193,-0.178l0.194,-0.178l0.195,-0.176l0.197,-0.175l0.197,-0.174l0.198,-0.173l0.199,-0.172l0.201,-0.171l0.202,-0.169l0.202,-0.168l0.203,-0.167l0.205,-0.166l0.206,-0.165l0.206,-0.163l0.208,-0.162l0.208,-0.161l0.21,-0.16l0.211,-0.158l0.211,-0.157l0.213,-0.156l0.213,-0.155l0.214,-0.154l0.216,-0.152l0.216,-0.151l0.218,-0.15l0.218,-0.148l0.219,-0.147l0.22,-0.146l0.221,-0.145l0.222,-0.143l0.223,-0.142l0.224,-0.141l0.225,-0.139l0.225,-0.138l0.227,-0.137l0.227,-0.135l0.228,-0.135l0.23,-0.132l0.23,-0.132l0.23,-0.13l0.232,-0.129l0.233,-0.127l0.233,-0.126l0.235,-0.125l0.235,-0.123l0.236,-0.122l0.237,-0.12l0.238,-0.119l0.238,-0.118l0.239,-0.116l0.241,-0.115l0.24,-0.114l0.242,-0.112l0.243,-0.11l0.243,-0.109l0.244,-0.108l0.245,-0.107l0.246,-0.104l0.246,-0.104l0.247,-0.102l0.248,-0.1l0.249,-0.099l0.249,-0.098l0.25,-0.096l0.251,-0.094l0.252,-0.094l0.252,-0.091l0.253,-0.09l0.254,-0.089l0.255,-0.087l0.255,-0.085l0.256,-0.084l0.256,-0.083l0.258,-0.081l0.257,-0.079l0.259,-0.078l0.259,-0.076l0.26,-0.075l0.261,-0.073l0.261,-0.072l0.262,-0.07l0.262,-0.069l0.264,-0.067l0.263,-0.065l0.265,-0.064l0.265,-0.062l0.265,-0.06l0.267,-0.059l0.266,-0.057l0.268,-0.056l0.268,-0.054l0.268,-0.052l0.269,-0.051l0.27,-0.049l0.27,-0.048l0.271,-0.045l0.271,-0.045l0.272,-0.042l0.273,-0.041l0.273,-0.039l0.273,-0.037l0.274,-0.036l0.275,-0.034l0.275,-0.033l0.275,-0.03l0.276,-0.029l0.277,-0.027l0.277,-0.026l0.277,-0.024l0.278,-0.022l0.279,-0.02l0.279,-0.019l0.279,-0.017l0.28,-0.015l0.28,-0.013l0.28,-0.012l0.282,-0.009l0.281,-0.008l0.282,-0.007l0.282,-0.004l0.283,-0.003l0.283,-0.001l0.283,0.001ZM56.348,45.704l-0.245,0.002l-0.244,0.004l-0.244,0.006l-0.243,0.007l-0.243,0.008l-0.243,0.01l-0.242,0.012l-0.242,0.013l-0.241,0.014l-0.241,0.016l-0.241,0.018l-0.24,0.019l-0.24,0.02l-0.239,0.023l-0.239,0.023l-0.238,0.025l-0.238,0.026l-0.237,0.028l-0.237,0.03l-0.237,0.031l-0.236,0.032l-0.235,0.034l-0.235,0.035l-0.235,0.037l-0.234,0.038l-0.234,0.039l-0.233,0.041l-0.232,0.042l-0.232,0.044l-0.232,0.045l-0.231,0.047l-0.231,0.048l-0.23,0.049l-0.229,0.051l-0.229,0.052l-0.229,0.054l-0.228,0.055l-0.227,0.056l-0.227,0.058l-0.226,0.059l-0.226,0.06l-0.226,0.062l-0.224,0.063l-0.224,0.065l-0.224,0.065l-0.223,0.068l-0.222,0.068l-0.222,0.07l-0.221,0.071l-0.221,0.072l-0.22,0.074l-0.219,0.075l-0.219,0.077l-0.218,0.077l-0.218,0.079l-0.217,0.08l-0.216,0.082l-0.216,0.083l-0.215,0.084l-0.214,0.085l-0.214,0.087l-0.213,0.088l-0.213,0.089l-0.212,0.091l-0.211,0.091l-0.21,0.093l-0.21,0.094l-0.209,0.096l-0.209,0.096l-0.208,0.098l-0.207,0.099l-0.206,0.101l-0.206,0.101l-0.205,0.103l-0.205,0.104l-0.203,0.105l-0.203,0.106l-0.202,0.108l-0.202,0.109l-0.201,0.11l-0.2,0.111l-0.199,0.112l-0.199,0.113l-0.197,0.115l-0.197,0.116l-0.197,0.117l-0.195,0.118l-0.195,0.119l-0.194,0.12l-0.193,0.122l-0.193,0.122l-0.191,0.124l-0.191,0.125l-0.19,0.126l-0.189,0.127l-0.189,0.128l-0.188,0.13l-0.187,0.13l-0.186,0.132l-0.185,0.132l-0.184,0.134l-0.184,0.134l-0.182,0.136l-0.183,0.137l-0.18,0.138l-0.18,0.139l-0.18,0.14l-0.179,0.142l-0.177,0.142l-0.177,0.143l-0.175,0.144l-0.176,0.146l-0.174,0.146l-0.173,0.147l-0.172,0.149l-0.171,0.149l-0.171,0.15l-0.17,0.152l-0.168,0.152l-0.168,0.154l-0.167,0.154l-0.166,0.155l-0.165,0.157l-0.164,0.157l-0.163,0.158l-0.162,0.159l-0.161,0.161l-0.16,0.161l-0.16,0.162l-0.158,0.163l-0.157,0.164l-0.156,0.165l-0.156,0.166l-0.154,0.167l-0.154,0.168l-0.152,0.168l-0.152,0.17l-0.15,0.17l-0.149,0.172l-0.149,0.172l-0.147,0.173l-0.146,0.174l-0.146,0.176l-0.144,0.175l-0.143,0.177l-0.143,0.178l-0.141,0.178l-0.14,0.179l-0.139,0.18l-0.138,0.182l-0.137,0.182l-0.135,0.182l-0.135,0.184l-0.134,0.184l-0.132,0.185l-0.132,0.186l-0.131,0.187l-0.129,0.188l-0.128,0.188l-0.127,0.19l-0.126,0.19l-0.125,0.191l-0.124,0.191l-0.122,0.193l-0.122,0.193l-0.12,0.194l-0.119,0.195l-0.118,0.195l-0.117,0.197l-0.116,0.197l-0.115,0.198l-0.113,0.198l-0.112,0.199l-0.111,0.2l-0.11,0.201l-0.109,0.202l-0.107,0.202l-0.107,0.203l-0.105,0.204l-0.104,0.204l-0.103,0.205l-0.101,0.206l-0.101,0.206l-0.099,0.207l-0.098,0.208l-0.096,0.209l-0.096,0.209l-0.094,0.21l-0.093,0.21l-0.091,0.211l-0.091,0.212l-0.089,0.213l-0.088,0.213l-0.087,0.214l-0.085,0.214l-0.084,0.215l-0.083,0.216l-0.081,0.216l-0.081,0.218l-0.079,0.217l-0.077,0.218l-0.077,0.219l-0.075,0.219l-0.074,0.221l-0.072,0.22l-0.071,0.221l-0.07,0.222l-0.068,0.222l-0.068,0.223l-0.065,0.224l-0.065,0.224l-0.063,0.224l-0.062,0.226l-0.06,0.225l-0.059,0.227l-0.058,0.227l-0.056,0.227l-0.055,0.228l-0.054,0.229l-0.052,0.228l-0.051,0.23l-0.049,0.23l-0.048,0.231l-0.047,0.231l-0.045,0.232l-0.043,0.231l-0.043,0.233l-0.041,0.233l-0.039,0.234l-0.038,0.234l-0.037,0.235l-0.035,0.235l-0.034,0.235l-0.032,0.236l-0.031,0.237l-0.03,0.237l-0.027,0.237l-0.027,0.238l-0.025,0.238l-0.023,0.239l-0.023,0.239l-0.02,0.24l-0.019,0.24l-0.018,0.241l-0.016,0.24l-0.014,0.242l-0.013,0.242l-0.012,0.242l-0.01,0.243l-0.008,0.243l-0.007,0.243l-0.006,0.244l-0.004,0.244l-0.002,0.245l-0.001,0.245l0.001,0.245l0.002,0.245l0.004,0.244l0.006,0.244l0.007,0.243l0.008,0.243l0.01,0.243l0.012,0.242l0.013,0.242l0.014,0.241l0.016,0.241l0.018,0.241l0.019,0.24l0.02,0.24l0.023,0.239l0.023,0.239l0.025,0.238l0.027,0.238l0.027,0.237l0.03,0.237l0.031,0.237l0.032,0.236l0.034,0.235l0.035,0.235l0.037,0.235l0.038,0.234l0.039,0.234l0.041,0.233l0.043,0.233l0.043,0.231l0.045,0.232l0.047,0.231l0.048,0.231l0.049,0.23l0.051,0.23l0.052,0.228l0.054,0.229l0.055,0.228l0.056,0.227l0.058,0.227l0.059,0.227l0.06,0.225l0.062,0.226l0.063,0.224l0.065,0.224l0.065,0.224l0.068,0.223l0.068,0.222l0.07,0.222l0.071,0.221l0.072,0.22l0.074,0.221l0.075,0.219l0.077,0.219l0.077,0.218l0.079,0.217l0.081,0.218l0.081,0.216l0.083,0.216l0.084,0.215l0.085,0.214l0.087,0.214l0.088,0.213l0.089,0.213l0.091,0.212l0.091,0.211l0.093,0.21l0.094,0.21l0.096,0.209l0.096,0.209l0.098,0.208l0.099,0.207l0.101,0.206l0.101,0.206l0.103,0.205l0.104,0.204l0.105,0.204l0.107,0.203l0.107,0.202l0.109,0.202l0.11,0.201l0.111,0.2l0.112,0.199l0.113,0.198l0.115,0.198l0.116,0.197l0.117,0.197l0.118,0.195l0.119,0.195l0.12,0.194l0.122,0.193l0.122,0.193l0.124,0.191l0.125,0.191l0.126,0.19l0.127,0.19l0.128,0.188l0.129,0.187l0.131,0.188l0.132,0.186l0.132,0.185l0.134,0.184l0.135,0.184l0.135,0.182l0.137,0.182l0.138,0.182l0.139,0.18l0.14,0.179l0.141,0.178l0.143,0.178l0.143,0.177l0.144,0.176l0.146,0.175l0.146,0.174l0.147,0.173l0.149,0.172l0.149,0.171l0.15,0.171l0.152,0.17l0.152,0.168l0.154,0.168l0.154,0.167l0.156,0.166l0.156,0.165l0.157,0.164l0.158,0.163l0.16,0.162l0.16,0.161l0.161,0.161l0.162,0.159l0.163,0.158l0.164,0.157l0.165,0.157l0.166,0.155l0.167,0.154l0.168,0.154l0.168,0.152l0.17,0.152l0.171,0.15l0.171,0.149l0.172,0.149l0.173,0.147l0.174,0.146l0.176,0.146l0.175,0.144l0.177,0.143l0.177,0.142l0.179,0.142l0.18,0.14l0.18,0.139l0.18,0.138l0.183,0.137l0.182,0.136l0.184,0.134l0.184,0.134l0.185,0.133l0.186,0.131l0.187,0.13l0.188,0.13l0.189,0.128l0.189,0.127l0.19,0.126l0.191,0.125l0.191,0.124l0.193,0.122l0.193,0.122l0.194,0.12l0.195,0.119l0.195,0.118l0.197,0.117l0.197,0.116l0.197,0.115l0.199,0.113l0.199,0.112l0.2,0.111l0.201,0.11l0.202,0.109l0.202,0.108l0.203,0.106l0.203,0.105l0.205,0.104l0.205,0.103l0.206,0.101l0.206,0.101l0.207,0.099l0.208,0.098l0.209,0.096l0.209,0.096l0.21,0.094l0.21,0.093l0.211,0.091l0.212,0.091l0.213,0.089l0.213,0.088l0.214,0.087l0.214,0.085l0.215,0.084l0.216,0.083l0.216,0.081l0.217,0.081l0.218,0.079l0.218,0.077l0.219,0.077l0.219,0.075l0.22,0.074l0.221,0.072l0.221,0.071l0.222,0.07l0.222,0.068l0.223,0.068l0.224,0.065l0.224,0.065l0.224,0.063l0.226,0.062l0.226,0.06l0.226,0.059l0.227,0.058l0.227,0.056l0.228,0.055l0.229,0.054l0.228,0.052l0.23,0.051l0.23,0.049l0.231,0.048l0.231,0.047l0.232,0.045l0.232,0.044l0.232,0.042l0.233,0.041l0.234,0.039l0.234,0.038l0.235,0.037l0.235,0.035l0.235,0.034l0.236,0.032l0.237,0.031l0.237,0.03l0.237,0.027l0.238,0.027l0.238,0.025l0.239,0.023l0.239,0.023l0.24,0.02l0.24,0.019l0.241,0.018l0.241,0.016l0.241,0.014l0.242,0.013l0.242,0.012l0.243,0.01l0.243,0.008l0.243,0.007l0.244,0.006l0.244,0.004l0.245,0.002l0.245,0.001l0.245,-0.001l0.245,-0.002l0.244,-0.004l0.244,-0.006l0.243,-0.007l0.243,-0.008l0.243,-0.01l0.242,-0.012l0.242,-0.013l0.241,-0.014l0.241,-0.016l0.241,-0.018l0.24,-0.019l0.24,-0.02l0.239,-0.023l0.239,-0.023l0.238,-0.025l0.238,-0.027l0.237,-0.027l0.237,-0.03l0.237,-0.031l0.236,-0.032l0.235,-0.034l0.235,-0.035l0.235,-0.037l0.234,-0.038l0.234,-0.039l0.233,-0.041l0.232,-0.043l0.233,-0.043l0.231,-0.045l0.231,-0.047l0.231,-0.048l0.23,-0.049l0.23,-0.051l0.228,-0.052l0.229,-0.054l0.228,-0.055l0.227,-0.056l0.227,-0.058l0.227,-0.059l0.225,-0.06l0.225,-0.062l0.225,-0.063l0.224,-0.065l0.224,-0.065l0.223,-0.068l0.222,-0.068l0.222,-0.07l0.221,-0.071l0.221,-0.072l0.22,-0.074l0.219,-0.075l0.219,-0.077l0.218,-0.077l0.218,-0.079l0.217,-0.08l0.216,-0.082l0.216,-0.083l0.215,-0.084l0.214,-0.085l0.214,-0.087l0.213,-0.088l0.213,-0.089l0.212,-0.091l0.211,-0.091l0.21,-0.093l0.21,-0.094l0.209,-0.096l0.209,-0.096l0.208,-0.098l0.207,-0.099l0.206,-0.101l0.206,-0.101l0.205,-0.103l0.205,-0.104l0.203,-0.105l0.203,-0.106l0.202,-0.108l0.202,-0.109l0.201,-0.11l0.2,-0.111l0.199,-0.112l0.199,-0.113l0.197,-0.115l0.197,-0.116l0.197,-0.117l0.195,-0.118l0.195,-0.119l0.194,-0.12l0.193,-0.122l0.193,-0.122l0.191,-0.124l0.191,-0.125l0.19,-0.126l0.19,-0.127l0.188,-0.128l0.188,-0.13l0.187,-0.13l0.186,-0.132l0.185,-0.132l0.184,-0.134l0.184,-0.134l0.182,-0.136l0.183,-0.138l0.181,-0.137l0.179,-0.139l0.18,-0.14l0.178,-0.142l0.178,-0.142l0.177,-0.143l0.176,-0.144l0.175,-0.146l0.174,-0.146l0.173,-0.147l0.172,-0.148l0.171,-0.15l0.171,-0.15l0.17,-0.152l0.168,-0.152l0.168,-0.153l0.167,-0.155l0.166,-0.155l0.165,-0.157l0.164,-0.157l0.163,-0.158l0.162,-0.159l0.161,-0.161l0.16,-0.161l0.16,-0.162l0.158,-0.163l0.157,-0.164l0.157,-0.165l0.155,-0.166l0.155,-0.167l0.153,-0.168l0.152,-0.168l0.151,-0.17l0.151,-0.17l0.15,-0.172l0.148,-0.173l0.147,-0.172l0.146,-0.174l0.146,-0.175l0.144,-0.176l0.144,-0.177l0.142,-0.178l0.141,-0.178l0.14,-0.179l0.139,-0.18l0.138,-0.182l0.137,-0.181l0.135,-0.183l0.135,-0.184l0.134,-0.184l0.133,-0.186l0.131,-0.185l0.131,-0.188l0.129,-0.187l0.128,-0.188l0.127,-0.19l0.126,-0.19l0.125,-0.191l0.124,-0.191l0.122,-0.193l0.122,-0.193l0.12,-0.194l0.119,-0.195l0.118,-0.195l0.117,-0.197l0.116,-0.197l0.114,-0.197l0.114,-0.199l0.112,-0.199l0.111,-0.2l0.11,-0.201l0.109,-0.202l0.107,-0.202l0.107,-0.203l0.105,-0.204l0.104,-0.204l0.103,-0.205l0.101,-0.205l0.101,-0.207l0.099,-0.208l0.098,-0.207l0.096,-0.209l0.096,-0.209l0.094,-0.21l0.093,-0.211l0.091,-0.21l0.091,-0.212l0.089,-0.213l0.088,-0.213l0.087,-0.214l0.085,-0.214l0.084,-0.215l0.083,-0.217l0.081,-0.215l0.081,-0.217l0.079,-0.218l0.077,-0.218l0.077,-0.219l0.075,-0.22l0.074,-0.22l0.072,-0.22l0.071,-0.221l0.07,-0.222l0.069,-0.222l0.067,-0.223l0.066,-0.224l0.064,-0.224l0.063,-0.224l0.062,-0.226l0.06,-0.225l0.059,-0.227l0.058,-0.227l0.056,-0.227l0.055,-0.228l0.054,-0.228l0.052,-0.23l0.051,-0.229l0.049,-0.23l0.048,-0.231l0.047,-0.231l0.045,-0.231l0.043,-0.232l0.043,-0.233l0.041,-0.233l0.039,-0.234l0.038,-0.234l0.037,-0.235l0.035,-0.235l0.034,-0.235l0.032,-0.236l0.031,-0.237l0.03,-0.237l0.027,-0.237l0.027,-0.238l0.025,-0.238l0.023,-0.239l0.023,-0.239l0.02,-0.24l0.019,-0.241l0.018,-0.24l0.016,-0.24l0.014,-0.242l0.013,-0.242l0.012,-0.242l0.01,-0.243l0.008,-0.243l0.007,-0.243l0.006,-0.244l0.004,-0.245l0.002,-0.244l0.001,-0.245l-0.001,-0.245l-0.002,-0.244l-0.004,-0.245l-0.006,-0.244l-0.007,-0.243l-0.008,-0.243l-0.01,-0.243l-0.012,-0.242l-0.013,-0.242l-0.014,-0.242l-0.016,-0.24l-0.018,-0.24l-0.019,-0.242l-0.02,-0.239l-0.023,-0.239l-0.023,-0.239l-0.025,-0.238l-0.027,-0.238l-0.027,-0.237l-0.03,-0.237l-0.031,-0.237l-0.032,-0.236l-0.034,-0.235l-0.035,-0.235l-0.037,-0.235l-0.038,-0.234l-0.039,-0.234l-0.041,-0.233l-0.043,-0.233l-0.043,-0.232l-0.045,-0.231l-0.047,-0.231l-0.048,-0.231l-0.049,-0.23l-0.051,-0.229l-0.052,-0.23l-0.054,-0.228l-0.055,-0.228l-0.056,-0.227l-0.058,-0.227l-0.059,-0.227l-0.06,-0.225l-0.062,-0.226l-0.063,-0.224l-0.064,-0.224l-0.066,-0.224l-0.067,-0.223l-0.069,-0.222l-0.07,-0.222l-0.071,-0.221l-0.072,-0.22l-0.074,-0.22l-0.075,-0.22l-0.077,-0.219l-0.077,-0.218l-0.079,-0.218l-0.081,-0.217l-0.081,-0.215l-0.083,-0.217l-0.084,-0.215l-0.085,-0.214l-0.087,-0.214l-0.088,-0.213l-0.089,-0.213l-0.09,-0.212l-0.092,-0.21l-0.093,-0.211l-0.094,-0.21l-0.096,-0.209l-0.096,-0.209l-0.098,-0.207l-0.099,-0.208l-0.101,-0.207l-0.101,-0.205l-0.103,-0.205l-0.104,-0.204l-0.105,-0.204l-0.107,-0.203l-0.107,-0.203l-0.109,-0.201l-0.11,-0.201l-0.111,-0.2l-0.112,-0.199l-0.114,-0.199l-0.114,-0.197l-0.116,-0.197l-0.117,-0.197l-0.118,-0.195l-0.119,-0.195l-0.12,-0.194l-0.122,-0.193l-0.122,-0.193l-0.124,-0.191l-0.125,-0.191l-0.126,-0.19l-0.127,-0.19l-0.128,-0.188l-0.129,-0.188l-0.131,-0.187l-0.131,-0.185l-0.133,-0.186l-0.134,-0.184l-0.135,-0.184l-0.135,-0.183l-0.137,-0.181l-0.138,-0.182l-0.139,-0.18l-0.14,-0.179l-0.141,-0.178l-0.142,-0.178l-0.144,-0.177l-0.144,-0.176l-0.146,-0.175l-0.146,-0.174l-0.147,-0.172l-0.148,-0.173l-0.15,-0.172l-0.151,-0.17l-0.151,-0.17l-0.152,-0.168l-0.153,-0.168l-0.155,-0.167l-0.155,-0.166l-0.157,-0.165l-0.157,-0.164l-0.158,-0.163l-0.16,-0.162l-0.16,-0.161l-0.161,-0.161l-0.162,-0.159l-0.163,-0.158l-0.164,-0.157l-0.165,-0.157l-0.166,-0.155l-0.167,-0.155l-0.168,-0.153l-0.168,-0.152l-0.17,-0.152l-0.171,-0.15l-0.171,-0.15l-0.172,-0.148l-0.173,-0.147l-0.174,-0.146l-0.175,-0.146l-0.176,-0.144l-0.177,-0.143l-0.178,-0.143l-0.178,-0.141l-0.18,-0.14l-0.179,-0.139l-0.181,-0.137l-0.183,-0.138l-0.182,-0.136l-0.184,-0.134l-0.184,-0.134l-0.185,-0.132l-0.186,-0.132l-0.187,-0.13l-0.188,-0.13l-0.188,-0.128l-0.19,-0.127l-0.19,-0.126l-0.191,-0.125l-0.191,-0.124l-0.193,-0.122l-0.193,-0.122l-0.194,-0.12l-0.195,-0.119l-0.195,-0.118l-0.197,-0.117l-0.197,-0.116l-0.197,-0.115l-0.199,-0.113l-0.199,-0.112l-0.2,-0.111l-0.201,-0.11l-0.202,-0.109l-0.202,-0.108l-0.203,-0.106l-0.203,-0.105l-0.205,-0.104l-0.205,-0.103l-0.206,-0.101l-0.206,-0.101l-0.207,-0.099l-0.208,-0.098l-0.209,-0.096l-0.209,-0.096l-0.21,-0.094l-0.21,-0.093l-0.211,-0.091l-0.212,-0.091l-0.213,-0.089l-0.213,-0.088l-0.214,-0.087l-0.214,-0.085l-0.215,-0.084l-0.216,-0.083l-0.216,-0.082l-0.217,-0.08l-0.218,-0.079l-0.218,-0.077l-0.219,-0.077l-0.219,-0.075l-0.22,-0.074l-0.221,-0.072l-0.221,-0.071l-0.222,-0.07l-0.222,-0.068l-0.223,-0.068l-0.224,-0.065l-0.224,-0.065l-0.225,-0.063l-0.225,-0.062l-0.225,-0.06l-0.227,-0.059l-0.227,-0.058l-0.227,-0.056l-0.228,-0.055l-0.229,-0.054l-0.229,-0.052l-0.229,-0.051l-0.23,-0.049l-0.231,-0.048l-0.231,-0.047l-0.231,-0.045l-0.233,-0.044l-0.232,-0.042l-0.233,-0.041l-0.234,-0.039l-0.234,-0.038l-0.235,-0.037l-0.235,-0.035l-0.235,-0.034l-0.236,-0.032l-0.237,-0.031l-0.237,-0.03l-0.237,-0.028l-0.238,-0.026l-0.238,-0.025l-0.239,-0.023l-0.239,-0.023l-0.24,-0.02l-0.24,-0.019l-0.241,-0.018l-0.24,-0.016l-0.242,-0.014l-0.242,-0.013l-0.242,-0.012l-0.243,-0.01l-0.243,-0.008l-0.243,-0.007l-0.244,-0.006l-0.244,-0.004l-0.245,-0.002l-0.245,-0.001l-0.245,0.001Z" style="fill:url(#_Linear1);"/><defs><linearGradient id="_Linear1" x1="0" y1="0" x2="1" y2="0" gradientUnits="userSpaceOnUse" gradientTransform="matrix(81.7194,0,0,81.7194,15.7333,83.563)"><stop offset="0%" style="stop-color:#98801e;stop-opacity:1"/><stop offset="100%" style="stop-color:#ccb451;stop-opacity:1"/></linearGradient></defs></svg>