<?xml version="1.0" standalone="no"?><!DOCTYPE svg PUBLIC "-//W3C//DTD SVG 1.1//EN" "http://www.w3.org/Graphics/SVG/1.1/DTD/svg11.dtd"><svg width="100%" height="100%" viewBox="0 0 60 60" version="1.1" xmlns="http://www.w3.org/2000/svg" xmlns:xlink="http://www.w3.org/1999/xlink" xml:space="preserve" style="fill-rule:evenodd;clip-rule:evenodd;stroke-linejoin:round;stroke-miterlimit:1.41421;"><g id="reset-button"><path d="M10.153,30.241c0,-5.906 2.347,-11.57 6.523,-15.747c8.691,-8.691 22.804,-8.691 31.495,0c8.691,8.691 8.691,22.804 0,31.495c-6.52,6.519 -16.383,8.347 -24.806,4.597l3.207,-7.201c5.441,2.423 11.813,1.242 16.025,-2.97c5.615,-5.615 5.615,-14.732 0,-20.347c-5.615,-5.615 -14.732,-5.615 -20.347,0c-2.698,2.698 -4.214,6.358 -4.214,10.173l-7.883,0Z" style="fill:#95bf07;"/><path d="M14.681,44.241l-11.083,-15.686l22.165,0l-11.082,15.686Z" style="fill:#95bf07;"/></g></svg>