<?xml version="1.0" standalone="no"?><!DOCTYPE svg PUBLIC "-//W3C//DTD SVG 1.1//EN" "http://www.w3.org/Graphics/SVG/1.1/DTD/svg11.dtd"><svg width="100%" height="100%" viewBox="0 0 82 82" version="1.1" xmlns="http://www.w3.org/2000/svg" xmlns:xlink="http://www.w3.org/1999/xlink" xml:space="preserve" style="fill-rule:evenodd;clip-rule:evenodd;stroke-linejoin:round;stroke-miterlimit:1.41421;"><path id="star-on" d="M40.622,15.997c3.915,0 9.862,14.394 9.862,14.394c0,0 15.528,1.208 16.737,4.931c1.21,3.723 -10.643,13.827 -10.643,13.827c0,0 3.65,15.141 0.483,17.442c-3.166,2.3 -16.439,-5.85 -16.439,-5.85c0,0 -13.272,8.15 -16.439,5.85c-3.166,-2.301 0.483,-17.442 0.483,-17.442c0,0 -11.852,-10.104 -10.643,-13.827c1.21,-3.723 16.738,-4.931 16.738,-4.931c0,0 5.947,-14.394 9.861,-14.394Z" style="fill:url(#_Linear1);stroke-width:2px;stroke:#435713;"/><defs><linearGradient id="_Linear1" x1="0" y1="0" x2="1" y2="0" gradientUnits="userSpaceOnUse" gradientTransform="matrix(24.7845,40.0318,-40.0318,24.7845,29.136,22.8546)"><stop offset="0%" style="stop-color:#fddd5b;stop-opacity:1"/><stop offset="100%" style="stop-color:#ff9705;stop-opacity:1"/></linearGradient></defs></svg>